<?xml version="1.0" encoding="UTF-8" standalone="no"?>
<svg
   data-name="Layer 2"
   id="Layer_2"
   viewBox="0 0 50 50"
   version="1.1"
   sodipodi:docname="catos.svg"
   inkscape:version="1.3 (0e150ed6c4, 2023-07-21)"
   width="50"
   height="50"
   xmlns:inkscape="http://www.inkscape.org/namespaces/inkscape"
   xmlns:sodipodi="http://sodipodi.sourceforge.net/DTD/sodipodi-0.dtd"
   xmlns="http://www.w3.org/2000/svg"
   xmlns:svg="http://www.w3.org/2000/svg">
  <sodipodi:namedview
     id="namedview5"
     pagecolor="#ffffff"
     bordercolor="#000000"
     borderopacity="0.25"
     inkscape:showpageshadow="2"
     inkscape:pageopacity="0.0"
     inkscape:pagecheckerboard="0"
     inkscape:deskcolor="#d1d1d1"
     inkscape:zoom="10.46863"
     inkscape:cx="30.806323"
     inkscape:cy="29.182424"
     inkscape:window-width="1920"
     inkscape:window-height="986"
     inkscape:window-x="0"
     inkscape:window-y="0"
     inkscape:window-maximized="1"
     inkscape:current-layer="Layer_2" />
  <defs
     id="defs1">
    <style
       id="style1">.cls-1{fill:#333;}</style>
  </defs>
  <circle
     style="fill:#338ec1;fill-opacity:1;stroke-width:41.4291"
     id="path5"
     cx="25.232349"
     cy="24.763044"
     r="22.5" />
  <path
     class="cls-1"
     d="m 36.729895,10.420164 -5.804988,5.805301 H 20.124924 l -5.804989,-5.805301 a 1.3499979,1.35007 0 0 0 -2.294996,0.97205 v 14.283739 a 13.499979,13.5007 0 0 0 26.999953,0 V 11.392214 a 1.3499979,1.35007 0 0 0 -2.294997,-0.97205 z m -16.604971,17.95593 a 2.6999959,2.70014 0 1 1 2.699996,-2.700141 2.6999959,2.70014 0 0 1 -2.699996,2.700141 z m 10.799983,0 a 2.6999959,2.70014 0 1 1 2.699994,-2.700141 2.6999959,2.70014 0 0 1 -2.699994,2.700141 z"
     id="path1"
     style="fill:#f5f5f5;fill-opacity:1;stroke-width:2.70006" />
</svg>
