<?xml version="1.0" encoding="UTF-8" standalone="no"?>
<!-- Created with Inkscape (http://www.inkscape.org/) -->

<svg
   xmlns:dc="http://purl.org/dc/elements/1.1/"
   xmlns:cc="http://creativecommons.org/ns#"
   xmlns:rdf="http://www.w3.org/1999/02/22-rdf-syntax-ns#"
   xmlns:svg="http://www.w3.org/2000/svg"
   xmlns="http://www.w3.org/2000/svg"
   xmlns:xlink="http://www.w3.org/1999/xlink"
   xmlns:sodipodi="http://sodipodi.sourceforge.net/DTD/sodipodi-0.dtd"
   xmlns:inkscape="http://www.inkscape.org/namespaces/inkscape"
   width="281.0943"
   height="177.5768"
   id="svg2"
   version="1.1"
   inkscape:version="0.92.0 r15299"
   sodipodi:docname="guix.svg">
  <title
     id="title3310">GNU Guix Logotype</title>
  <defs
     id="defs4">
    <linearGradient
       id="linearGradient4696-5">
      <stop
         style="stop-color:#ffb638;stop-opacity:1;"
         offset="0"
         id="stop4698-6" />
      <stop
         style="stop-color:#f0ae26;stop-opacity:1;"
         offset="1"
         id="stop4700-2" />
    </linearGradient>
    <linearGradient
       id="linearGradient4702-3">
      <stop
         style="stop-color:#e34646;stop-opacity:1;"
         offset="0"
         id="stop4704-1" />
      <stop
         style="stop-color:#ffbf2d;stop-opacity:1;"
         offset="1"
         id="stop4706-8" />
    </linearGradient>
    <color-profile
       id="color-profile21"
       xlink:href="/usr/share/color/icc/ghostscript/ps_cmyk.icc"
       name="Artifex-PS-CMYK-Profile" />
    <linearGradient
       inkscape:collect="always"
       xlink:href="#linearGradient4702-3"
       id="linearGradient3926"
       gradientUnits="userSpaceOnUse"
       gradientTransform="matrix(-1.4874381,0,0,1.4874381,290.6776,692.22881)"
       x1="142.96875"
       y1="63.65625"
       x2="177.04297"
       y2="69.791016" />
    <linearGradient
       inkscape:collect="always"
       xlink:href="#linearGradient4696-5"
       id="linearGradient3929"
       gradientUnits="userSpaceOnUse"
       gradientTransform="matrix(-0.83291399,0,0,0.83291399,223.24314,48.654082)"
       x1="108.08774"
       y1="1025.709"
       x2="80.655251"
       y2="1043.709" />
    <linearGradient
       inkscape:collect="always"
       xlink:href="#linearGradient4702-3"
       id="linearGradient3932"
       gradientUnits="userSpaceOnUse"
       gradientTransform="matrix(1.4874381,0,0,1.4874381,-11.459767,-575.60821)"
       x1="113.5146"
       y1="1004.8033"
       x2="78.000107"
       y2="922.07178" />
    <linearGradient
       inkscape:collect="always"
       xlink:href="#linearGradient4702-3"
       id="linearGradient3936"
       gradientUnits="userSpaceOnUse"
       gradientTransform="matrix(1.4874381,0,0,1.4874381,-11.411667,692.22929)"
       x1="142.96875"
       y1="63.65625"
       x2="176.60477"
       y2="70.667412" />
  </defs>
  <sodipodi:namedview
     id="base"
     pagecolor="#ffffff"
     bordercolor="#666666"
     borderopacity="1.0"
     inkscape:pageopacity="0.0"
     inkscape:pageshadow="2"
     inkscape:zoom="2.122061"
     inkscape:cx="215.87558"
     inkscape:cy="99.098243"
     inkscape:document-units="px"
     inkscape:current-layer="layer1"
     showgrid="false"
     inkscape:window-width="1200"
     inkscape:window-height="1856"
     inkscape:window-x="0"
     inkscape:window-y="27"
     inkscape:window-maximized="1"
     inkscape:showpageshadow="false"
     showborder="true"
     borderlayer="true"
     inkscape:object-nodes="true"
     fit-margin-left="10"
     fit-margin-top="10"
     fit-margin-bottom="10"
     fit-margin-right="10">
    <inkscape:grid
       type="axonomgrid"
       id="grid3004"
       units="mm"
       empspacing="5"
       visible="true"
       enabled="true"
       snapvisiblegridlinesonly="true"
       spacingy="3.7mm"
       originx="-14.203679"
       originy="-154.03017" />
  </sodipodi:namedview>
  <metadata
     id="metadata7">
    <rdf:RDF>
      <cc:Work
         rdf:about="">
        <dc:format>image/svg+xml</dc:format>
        <dc:type
           rdf:resource="http://purl.org/dc/dcmitype/StillImage" />
        <dc:title>GNU Guix Logotype</dc:title>
        <dc:date>2016-12-16</dc:date>
        <dc:creator>
          <cc:Agent>
            <dc:title>Luis Felipe López Acevedo</dc:title>
          </cc:Agent>
        </dc:creator>
        <dc:rights>
          <cc:Agent>
            <dc:title>Luis Felipe López Acevedo</dc:title>
          </cc:Agent>
        </dc:rights>
        <cc:license
           rdf:resource="http://creativecommons.org/licenses/by-sa/4.0/" />
        <dc:description>Variant of the original logo with colors adjusted for printing.</dc:description>
      </cc:Work>
      <cc:License
         rdf:about="http://creativecommons.org/licenses/by-sa/4.0/">
        <cc:permits
           rdf:resource="http://creativecommons.org/ns#Reproduction" />
        <cc:permits
           rdf:resource="http://creativecommons.org/ns#Distribution" />
        <cc:requires
           rdf:resource="http://creativecommons.org/ns#Notice" />
        <cc:requires
           rdf:resource="http://creativecommons.org/ns#Attribution" />
        <cc:permits
           rdf:resource="http://creativecommons.org/ns#DerivativeWorks" />
        <cc:requires
           rdf:resource="http://creativecommons.org/ns#ShareAlike" />
      </cc:License>
    </rdf:RDF>
  </metadata>
  <g
     inkscape:label="layer"
     inkscape:groupmode="layer"
     id="layer1"
     transform="translate(0.9144317,-752.88119)">
    <path
       id="path3143"
       d="m 261.71933,762.88239 c -2.68257,4.90263 -5.40593,8.89401 -8.18093,12.03897 -2.68252,3.05258 -5.64064,5.49427 -8.87812,7.34422 -3.14506,1.75757 -6.71345,3.02514 -10.69097,3.76506 -3.88504,0.64751 -8.34589,0.97629 -13.43343,0.9761 -3.75286,0 -7.12556,-0.1922 -10.0867,-0.55773 -0.0117,0 -0.0345,0 -0.0466,0 -0.37541,-0.0273 -1.15076,-0.15334 -1.95225,-0.27891 -0.84421,-0.13218 -1.70715,-0.25955 -3.06786,-0.5113 -24.94204,-4.61489 -33.21409,12.7003 -35.00128,17.47744 -0.27974,0.74767 -0.41833,1.20845 -0.41833,1.20845 l -30.30657,84.50509 -18.59296,31.60821 h 37.13946 c 15.25354,-33.96261 29.91831,-104.87552 45.59929,-111.13955 3.39881,0.47537 7.61176,0.69713 12.6897,0.69713 6.66007,0 12.62319,-0.79843 17.89575,-2.46349 5.27251,-1.66502 10.01506,-4.24757 14.27012,-7.76263 4.25502,-3.60748 8.10509,-8.20868 11.52764,-13.75881 3.515,-5.54998 6.84862,-12.21732 9.9937,-19.98743 l -8.45971,-3.16082 z"
       style="font-style:normal;font-weight:bold;font-size:144px;line-height:125%;font-family:Sans;-inkscape-font-specification:'Sans Bold';letter-spacing:0px;word-spacing:0px;fill:#ffbf2d;fill-opacity:1;stroke:none"
       inkscape:connector-curvature="0" />
    <path
       inkscape:connector-curvature="0"
       id="path3145"
       d="m 261.71837,762.88586 c -2.68256,4.90263 -5.40573,8.8885 -8.18074,12.03346 -2.68249,3.05259 -5.64179,5.49543 -8.87926,7.34538 -0.77887,0.43527 -1.58186,0.83524 -2.41246,1.20983 -0.008,0.003 -0.0136,0.0109 -0.0217,0.0144 -1.04548,0.73525 -2.39023,1.36643 -4.2128,1.80033 -21.02083,5.00504 -35.33881,23.73821 -36.68368,25.5504 0.60979,-0.50134 1.2236,-0.91065 1.83635,-1.22422 0.0921,-0.0488 0.18143,-0.093 0.27365,-0.13683 0.0147,-0.007 0.0285,-0.0148 0.0432,-0.0216 0.10679,-0.0498 0.21717,-0.0941 0.32406,-0.13682 3.39881,0.47537 7.61085,0.69853 12.68879,0.69853 6.66007,0 12.6228,-0.805 17.89536,-2.47007 5.27252,-1.66501 10.01082,-4.2408 14.26589,-7.75586 4.25502,-3.60747 8.10681,-8.21164 11.52937,-13.76177 3.515,-5.55 6.8504,-12.22084 9.99546,-19.99096 l -8.4616,-3.1542 z"
       style="font-style:normal;font-weight:bold;font-size:144px;line-height:125%;font-family:Sans;-inkscape-font-specification:'Sans Bold';letter-spacing:0px;word-spacing:0px;fill:url(#linearGradient3936);fill-opacity:1;stroke:none" />
    <path
       id="path3147"
       d="m 17.546788,762.88241 c 2.682566,4.90263 5.40591,8.89399 8.180911,12.03895 2.682534,3.05258 5.640652,5.49427 8.878151,7.34422 3.145023,1.75757 6.71344,3.02514 10.690951,3.76506 3.885043,0.6477 8.345884,0.97629 13.433428,0.9761 3.752874,0 7.125565,-0.1922 10.086682,-0.55773 0.0118,0 0.03453,0 0.04658,0 0.375389,-0.0269 1.150749,-0.15333 1.952259,-0.27891 0.844204,-0.13218 1.707142,-0.25955 3.067837,-0.5113 24.942056,-4.61489 33.214113,12.7003 35.001293,17.47744 0.27972,0.74767 0.41833,1.20845 0.41833,1.20845 l 30.30655,84.50509 18.59298,31.60821 H 121.06328 C 105.80974,886.49538 91.144983,815.58247 75.463998,809.31844 c -3.39881,0.47537 -7.611781,0.69713 -12.689715,0.69713 -6.660053,0 -12.623193,-0.79843 -17.895745,-2.46349 -5.272512,-1.66502 -10.015069,-4.24757 -14.270103,-7.76263 -4.255001,-3.60748 -8.105096,-8.20867 -11.527642,-13.75881 -3.515005,-5.54993 -6.848656,-12.21728 -9.9937267,-19.98743 l 8.4598047,-3.1608 z"
       style="font-style:normal;font-weight:bold;font-size:144px;line-height:125%;font-family:Sans;-inkscape-font-specification:'Sans Bold';letter-spacing:0px;word-spacing:0px;fill:#ffbf2d;fill-opacity:1;stroke:none"
       inkscape:connector-curvature="0" />
    <path
       inkscape:connector-curvature="0"
       style="font-style:normal;font-weight:bold;font-size:144px;line-height:125%;font-family:Sans;-inkscape-font-specification:'Sans Bold';letter-spacing:0px;word-spacing:0px;fill:url(#linearGradient3932);fill-opacity:1;stroke:none"
       d="m 17.545281,762.88119 c 2.682566,4.90262 5.40591,8.89399 8.180911,12.03894 2.682534,3.05259 5.640652,5.49427 8.878143,7.34422 3.145031,1.75757 6.713448,3.02514 10.690959,3.76507 3.885043,0.64768 8.345883,0.97628 13.433436,0.97609 3.752866,0 7.125557,-0.19221 10.086682,-0.55772 0.01172,0 0.03453,0 0.04658,0 0.37539,-0.027 1.150749,-0.15335 1.95226,-0.27892 0.844204,-0.13218 1.707142,-0.25955 3.067837,-0.5113 24.942055,-4.61489 33.214111,12.70029 35.001291,17.47744 0.27972,0.74767 0.41833,1.20845 0.41833,1.20845 l 30.30655,84.5051 15.61811,31.60819 H 121.06178 C 105.80825,886.49415 91.143484,815.58124 75.4625,809.31721 c -3.398811,0.47537 -7.611781,0.69713 -12.689716,0.69713 -6.660052,0 -12.623184,-0.79843 -17.895736,-2.46349 -5.27252,-1.66502 -10.01507,-4.24758 -14.270111,-7.76263 -4.255001,-3.60748 -8.105096,-8.20867 -11.527634,-13.7588 -3.515013,-5.54995 -6.848656,-12.21728 -9.9937347,-19.98743 l 8.4598047,-3.1608 z"
       id="path3149"
       sodipodi:nodetypes="ccccccccsscccccccccccc" />
    <path
       sodipodi:nodetypes="ccc"
       d="m 139.60188,888.83656 -18.52001,31.62143 h 37.12091"
       style="font-style:normal;font-weight:bold;font-size:144px;line-height:125%;font-family:Sans;-inkscape-font-specification:'Sans Bold';letter-spacing:0px;word-spacing:0px;fill:url(#linearGradient3929);fill-opacity:1;stroke:none"
       id="path3151"
       inkscape:connector-curvature="0" />
    <path
       inkscape:connector-curvature="0"
       id="path3154"
       d="m 17.549301,762.88586 -8.4615917,3.1542 c 0.9828327,2.42817 1.9835237,4.75137 3.0029637,6.96371 0.203893,0.44246 0.406773,0.87683 0.612118,1.31064 7.97e-4,0.002 -7.98e-4,0.006 0,0.007 0.204419,0.4318 0.413464,0.85862 0.619319,1.28184 0.06859,0.14106 0.140073,0.27758 0.208837,0.41768 0.345267,0.70349 0.687717,1.40177 1.036995,2.08119 0.0016,0.003 0.0056,0.004 0.0072,0.007 0.2082,0.40484 0.416902,0.80634 0.626521,1.20263 0.845456,1.59852 1.702476,3.12828 2.570885,4.58726 0.216845,0.36432 0.429846,0.7174 0.648119,1.073 0.0846,0.13784 0.167237,0.27395 0.252049,0.41048 0.135072,0.21746 0.274858,0.43399 0.410473,0.64812 0.21391,0.34687 0.423681,0.69034 0.640925,1.0298 0.346127,0.54084 0.704035,1.06956 1.058592,1.59149 0.08954,0.13178 0.176378,0.26551 0.266453,0.39607 0.224988,0.32622 0.448604,0.64634 0.676926,0.96499 0.454362,0.6341 0.915161,1.25393 1.382659,1.85795 0.233753,0.302 0.468719,0.59851 0.705734,0.89296 0.474046,0.58892 0.953228,1.16257 1.440274,1.72113 0.369264,0.42348 0.746711,0.83988 1.123409,1.24584 0.11901,0.12822 0.240325,0.2552 0.360068,0.38166 0.501139,0.52939 1.005452,1.04257 1.519487,1.54109 0.256396,0.24866 0.510957,0.49359 0.770542,0.73454 0.260846,0.24217 0.520894,0.47857 0.784946,0.71294 0.262768,0.23322 0.526214,0.45866 0.792148,0.68413 0.797826,0.65907 1.616085,1.28595 2.448461,1.87955 2.219678,1.58292 4.563007,2.93443 7.035721,4.05436 0.30909,0.14 0.615842,0.27768 0.928975,0.41048 0.628244,0.26652 1.263706,0.51855 1.908363,0.75614 0.321292,0.11842 0.639577,0.22723 0.964984,0.33846 0.325399,0.11123 0.657051,0.22 0.986582,0.32406 0.32953,0.10407 0.658853,0.20515 0.993783,0.30246 0.669868,0.19463 1.353717,0.37949 2.04519,0.5473 0.345729,0.0839 0.693053,0.16039 1.044189,0.23765 0.351144,0.0773 0.702056,0.15261 1.0586,0.22324 0.358824,0.0711 0.715902,0.13718 1.080206,0.20164 0.723917,0.12808 1.458027,0.24373 2.203614,0.34566 1.118385,0.15292 2.260639,0.27964 3.427842,0.37447 0.778142,0.0633 1.569381,0.1135 2.369249,0.15123 0.799868,0.0377 1.612433,0.0595 2.434058,0.072 0.410808,0.006 0.822374,0.007 1.23863,0.007 0.634744,0 1.257341,-2.1e-4 1.865152,-0.007 1.215621,-0.014 2.376363,-0.0437 3.485456,-0.0864 0.552094,-0.0213 1.094314,-0.0435 1.620305,-0.072 0.528207,-0.0287 1.046214,-0.0646 1.548286,-0.10083 1.506215,-0.10864 2.895032,-0.24661 4.169584,-0.42487 0.106887,0.0427 0.217268,0.087 0.324059,0.13682 0.01476,0.006 0.02847,0.0148 0.04323,0.0216 0.09222,0.0439 0.181498,0.088 0.273655,0.13682 0.613098,0.31376 1.226196,0.72249 1.836344,1.22423 -1.342041,-1.80851 -15.660419,-20.54497 -36.683697,-25.5504 -1.822546,-0.43396 -3.167314,-1.06505 -4.212787,-1.80034 -0.008,-0.003 -0.0138,-0.0108 -0.02161,-0.0144 -0.828724,-0.37374 -1.635219,-0.77569 -2.412461,-1.20983 -0.0016,-8e-4 -0.0056,7.9e-4 -0.0072,0 -0.200551,-0.11459 -0.399307,-0.23372 -0.597713,-0.35287 -0.0016,-8e-4 -0.0056,8e-4 -0.0072,0 -0.200161,-0.12025 -0.392529,-0.24238 -0.590512,-0.36726 -0.397593,-0.25081 -0.792204,-0.50819 -1.181016,-0.77775 -0.193628,-0.13419 -0.384657,-0.27162 -0.576108,-0.41048 -0.38559,-0.27966 -0.761035,-0.56553 -1.137812,-0.86416 -0.187113,-0.14821 -0.369568,-0.29358 -0.554511,-0.44649 -0.186307,-0.15403 -0.370389,-0.30928 -0.554503,-0.46808 -0.182773,-0.15761 -0.359486,-0.32017 -0.540098,-0.4825 -0.903047,-0.81159 -1.779432,-1.67679 -2.6285,-2.60688 -0.169806,-0.18602 -0.343631,-0.37813 -0.511292,-0.56891 -0.617038,-0.6993 -1.231492,-1.4415 -1.843546,-2.22522 -0.07617,-0.0976 -0.147147,-0.19638 -0.223241,-0.29525 -0.171864,-0.22327 -0.347013,-0.44692 -0.518501,-0.67693 -0.857419,-1.15011 -1.708131,-2.38737 -2.556466,-3.70871 -0.339332,-0.52854 -0.677436,-1.07112 -1.015389,-1.62751 -0.168976,-0.27819 -0.335456,-0.55736 -0.504098,-0.84255 -0.50432,-0.85289 -1.010883,-1.74117 -1.512284,-2.6573 z"
       style="font-style:normal;font-weight:bold;font-size:144px;line-height:125%;font-family:Sans;-inkscape-font-specification:'Sans Bold';letter-spacing:0px;word-spacing:0px;fill:url(#linearGradient3926);fill-opacity:1;stroke:none" />
  </g>
</svg>
