<?xml version="1.0" encoding="UTF-8" standalone="no"?>
<svg
   viewBox="0 0 343.93253 353.4505"
   version="1.1"
   id="svg987"
   sodipodi:docname="logo.svg"
   inkscape:version="1.2.2 (b0a8486541, 2022-12-01)"
   width="343.93253"
   height="353.4505"
   xmlns:inkscape="http://www.inkscape.org/namespaces/inkscape"
   xmlns:sodipodi="http://sodipodi.sourceforge.net/DTD/sodipodi-0.dtd"
   xmlns="http://www.w3.org/2000/svg"
   xmlns:svg="http://www.w3.org/2000/svg">
  <defs
     id="defs991" />
  <sodipodi:namedview
     id="namedview989"
     pagecolor="#ffffff"
     bordercolor="#000000"
     borderopacity="0.25"
     inkscape:showpageshadow="2"
     inkscape:pageopacity="0.0"
     inkscape:pagecheckerboard="0"
     inkscape:deskcolor="#d1d1d1"
     showgrid="false"
     inkscape:zoom="1.609375"
     inkscape:cx="182.99029"
     inkscape:cy="168.69903"
     inkscape:window-width="1423"
     inkscape:window-height="1025"
     inkscape:window-x="0"
     inkscape:window-y="22"
     inkscape:window-maximized="0"
     inkscape:current-layer="svg987" />
  <!--!Font Awesome Free 6.5.1 by @fontawesome - https://fontawesome.com License - https://fontawesome.com/license/free Copyright 2024 Fonticons, Inc.-->
  <path
     fill="#06080a"
     stroke="#06080a"
     d="m 193.69717,150.36994 c -42.54776,-29.0868 -153.565168,0.50795 -185.5490213,45.218 -14.403046,20.13394 -8.66717598,42.00894 15.3932013,58.45727 26.150262,17.87702 53.817362,15.22926 74.823312,29.58949 21.166708,14.47013 28.170108,40.8196 54.106008,58.55008 24.06038,16.44833 47.04691,14.20875 61.44996,-5.92519 31.98385,-44.71005 22.32428,-156.80286 -20.22346,-185.88965 z M 119.96408,89.140179 c 8.74751,-23.82842 0.84416,-48.4737 -17.69199,-55.13228 -18.482548,-6.62195 -40.535528,7.25146 -49.241768,31.02219 -8.74751,23.82841 -0.84416,48.473701 17.69197,55.132281 18.48258,6.62195 40.535548,-7.25146 49.241788,-31.022191 z m 53.97189,19.028761 c 19.90108,6.64675 45.45764,-11.789671 57.08666,-41.207711 11.62901,-29.41804 4.79627,-58.5715304 -15.1584,-65.2549154 -19.95467,-6.683387 -45.45766,11.7896764 -57.08666,41.2077054 -11.58774,29.36035 -4.79628,58.571541 15.1584,65.254921 z m 162.8846,86.18266 c -12.70482,-14.6986 -39.19175,-13.47754 -59.044,2.67348 -19.89352,16.20869 -25.65617,41.21862 -12.91007,55.85953 12.70483,14.69859 39.19176,13.47752 59.04401,-2.67348 19.89351,-16.20871 25.65616,-41.21862 12.91006,-55.85953 z m -95.84778,-40.35447 c 13.21542,15.99259 43.61304,12.20487 67.90081,-8.4734 24.23416,-20.7149 33.23248,-50.471001 20.00473,-66.557911 -13.22774,-16.08692 -43.61305,-12.20488 -67.9008,8.47339 -24.23418,20.714901 -33.23249,50.471001 -20.00474,66.557921 z"
     id="path985"
     style="fill-opacity:1;stroke-width:0.678473" />
</svg>
