<?xml version="1.0" encoding="UTF-8" standalone="no"?>
<svg
   width="64"
   height="64"
   viewBox="0 0 64 64"
   version="1.1"
   id="svg193"
   sodipodi:docname="logo.svg"
   inkscape:version="1.3.1 (91b66b0783, 2023-11-16, custom)"
   inkscape:export-filename="logo.png"
   inkscape:export-xdpi="768"
   inkscape:export-ydpi="768"
   xmlns:inkscape="http://www.inkscape.org/namespaces/inkscape"
   xmlns:sodipodi="http://sodipodi.sourceforge.net/DTD/sodipodi-0.dtd"
   xmlns="http://www.w3.org/2000/svg"
   xmlns:svg="http://www.w3.org/2000/svg">
  <defs
     id="defs197" />
  <sodipodi:namedview
     id="namedview195"
     pagecolor="#9a9a9a"
     bordercolor="#eeeeee"
     borderopacity="1"
     inkscape:showpageshadow="0"
     inkscape:pageopacity="0"
     inkscape:pagecheckerboard="true"
     inkscape:deskcolor="#505050"
     showgrid="false"
     inkscape:zoom="6.4609375"
     inkscape:cx="43.801693"
     inkscape:cy="16.561064"
     inkscape:window-width="1920"
     inkscape:window-height="1014"
     inkscape:window-x="0"
     inkscape:window-y="0"
     inkscape:window-maximized="1"
     inkscape:current-layer="svg193" />
  <circle
     style="fill:#4d4d4d;fill-opacity:1;stroke:none;stroke-width:1.02056"
     id="path1"
     cx="32"
     cy="32"
     r="32" />
  <path
     fill-rule="nonzero"
     fill="#ff5555"
     fill-opacity="1"
     d="M 8.7360856,40.69498 V 12.777154 h 6.2005674 v 3.085011 h 3.115555 v 3.115558 h 3.085011 v -3.115558 h 3.115557 v -3.085011 h 6.200567 V 40.69498 H 24.252776 V 25.178291 h -3.115557 v 3.115555 H 18.052208 V 25.178291 H 14.936653 V 40.69498 Z M 33.561263,37.579424 V 25.178291 h 3.115554 v -3.115556 h 15.516692 v 3.115556 h 3.08501 v 6.200566 h -15.51669 v 6.200567 h 9.316123 v -3.085011 h 6.200567 v 3.085011 h -3.08501 V 40.69498 H 36.676817 v -3.115556 z m 6.200566,-12.401133 v 3.115555 h 9.316123 v -3.115555 z"
     id="path187"
     style="stroke-width:1.95487"
     sodipodi:nodetypes="ccccccccccccccccccccccccccccccccccccccccccccc" />
  <path
     fill-rule="nonzero"
     fill="#e5444c"
     fill-opacity="1"
     d="m 13.926878,51.891151 2.718476,0.03056 v -0.91634 c 0,-0.565077 0.305447,-0.862887 0.916339,-0.885796 0.610894,0.02291 0.91634,0.320719 0.91634,0.885796 v 1.863224 c 0,0.59561 -0.305446,0.885785 -0.91634,0.885785 h -6.383834 c -0.59562,0 -0.885795,-0.290175 -0.885795,-0.885795 l -0.03056,-9.193946 c 0,-0.610893 0.305446,-0.91634 0.916341,-0.91634 h 1.863234 c 0.526894,0 0.824705,0.305447 0.885794,0.91634 z m 6.116569,1.83268 c -0.290173,0 -0.427626,-0.152734 -0.427626,-0.458169 0,-0.09927 0.01525,-0.183269 0.0611,-0.244358 l -0.03056,-0.03056 1.863225,-7.78889 0.305446,-1.31342 0.09163,-0.366536 c 0.122179,-0.465805 0.39708,-0.702528 0.824706,-0.702528 h 0.152733 2.993378 0.152732 c 0.427627,0 0.687257,0.236723 0.794162,0.702528 l 0.09163,0.366536 2.229761,9.10231 c 0.01525,0.084 0.03056,0.183268 0.03056,0.305446 0,0.305449 -0.152734,0.458171 -0.458171,0.458171 h -2.382487 -0.152734 c -0.412351,0 -0.671982,-0.229087 -0.794161,-0.702528 l -1.924301,-7.849966 -1.832682,7.819434 c -0.122178,0.473443 -0.39708,0.702527 -0.824704,0.702527 z m 4.367887,-0.885794 c -0.04583,0.610892 -0.335991,0.916339 -0.885796,0.916339 -0.610894,0 -0.916339,-0.290175 -0.916339,-0.885796 l -0.03056,-1.863224 c 0,-0.587985 0.305447,-0.885796 0.91634,-0.885796 0.565078,0 0.870524,0.305447 0.916341,0.91634 z m 12.607311,-4.490067 -0.733073,3.023921 -0.305445,1.313422 -0.09163,0.366535 c -0.084,0.366535 -0.267266,0.59562 -0.549803,0.671983 v 0.03056 h -2.413033 -0.152733 c -0.412354,0 -0.671983,-0.229085 -0.794162,-0.702527 l -0.09161,-0.36654 -2.22976,-9.10231 c -0.02291,-0.07637 -0.03056,-0.183267 -0.03056,-0.305446 0,-0.305447 0.152732,-0.45817 0.45817,-0.45817 h 2.382483 0.152733 c 0.427626,0 0.687256,0.236721 0.794161,0.702527 l 1.435601,5.803486 1.191242,-5.10096 0.152733,-0.671983 c 0.09926,-0.442896 0.343627,-0.679617 0.733071,-0.702527 h 0.183249 c 0.381808,0.02291 0.626164,0.259631 0.733073,0.702527 l 0.152733,0.671983 1.160696,4.97878 1.343966,-5.650763 c 0.122178,-0.465805 0.381808,-0.702527 0.794162,-0.702527 h 0.763616 c 0.305447,0 0.45817,0.152734 0.45817,0.458171 0,0.106911 -0.02291,0.183267 -0.0611,0.244356 v 0.03056 l -1.863224,7.788889 -0.305447,1.313421 -0.09162,0.366536 c -0.08401,0.351263 -0.25963,0.572712 -0.51926,0.671983 v 0.03053 H 38.66807 v -0.03056 c -0.267266,-0.09926 -0.442898,-0.320721 -0.519259,-0.671983 l -0.09162,-0.366537 -0.305447,-1.313421 z m 8.804499,0.733073 -2.565753,-4.856603 c -0.084,-0.160358 -0.122178,-0.320717 -0.122178,-0.488715 0,-0.320717 0.190912,-0.580348 0.58035,-0.763617 0.160356,-0.09926 0.320719,-0.152732 0.488714,-0.152732 l 1.466143,-0.03056 c 0.28254,0 0.51926,0.175624 0.702528,0.519259 l 1.863225,3.695904 1.985403,-3.72645 c 0.183268,-0.343607 0.427626,-0.519239 0.733071,-0.519239 0.137447,0 0.305449,0.04584 0.488715,0.122179 0.366536,0.206176 0.549805,0.473443 0.549805,0.79416 0,0.145091 -0.03056,0.305448 -0.09163,0.488716 l -2.443573,4.795513 v 3.909717 c -0.06112,0.595619 -0.35891,0.885795 -0.885805,0.885795 h -1.863225 c -0.595621,0 -0.885794,-0.290176 -0.885794,-0.885795 z"
     id="path189"
     sodipodi:nodetypes="ccscssssccssccsscccccsccscccsscscccsscsccscccccccccscccsscsccccccccccssscccccccccccccccsccccccscscccsssc"
     style="stroke-width:1.95487" />
  <path
     fill-rule="nonzero"
     fill="#96c5f6"
     fill-opacity="1"
     d="m 33.873974,19.591512 1.390625,0.01562 v -0.46875 c 0,-0.289062 0.15625,-0.441406 0.46875,-0.453124 0.3125,0.01172 0.46875,0.164062 0.46875,0.453124 v 0.953126 c 0,0.304687 -0.15625,0.453124 -0.46875,0.453124 h -3.265625 c -0.304687,0 -0.453125,-0.148437 -0.453125,-0.453124 l -0.01563,-4.703126 c 0,-0.3125 0.15625,-0.46875 0.46875,-0.46875 h 0.95313 c 0.269531,0 0.421875,0.15625 0.453125,0.46875 z m 5.578125,0.5 c -0.02344,0.304687 -0.167969,0.453124 -0.4375,0.453124 h -0.953125 c -0.3125,0 -0.46875,-0.148437 -0.46875,-0.453124 v -4.6875 c 0,-0.3125 0.148437,-0.46875 0.453125,-0.46875 h 0.984375 c 0.269531,0.01172 0.414063,0.167968 0.4375,0.46875 z m 2.308594,-3.921876 v 3.953126 c 0,0.28125 -0.15625,0.421874 -0.46875,0.421874 -0.3125,0 -0.46875,-0.148437 -0.46875,-0.453124 v -4.703126 c 0,-0.289062 0.160156,-0.441406 0.484375,-0.453124 h 0.671875 c 0.175781,0 0.320312,0.101562 0.4375,0.296874 l 1.203125,3.21875 v -3.0625 c 0.03125,-0.3125 0.179687,-0.46875 0.453125,-0.46875 h 0.953125 c 0.3125,0 0.46875,0.15625 0.46875,0.46875 l -0.01563,4.703126 c 0,0.304687 -0.152344,0.453124 -0.453125,0.453124 h -1.25 c -0.261719,0 -0.429688,-0.09766 -0.5,-0.296874 z m 5.113281,-1.25 c 0.3125,0 0.476563,0.15625 0.5,0.46875 v 3.296876 h 2.296875 v -3.296876 c 0,-0.3125 0.15625,-0.46875 0.46875,-0.46875 0.3125,0 0.46875,0.15625 0.46875,0.46875 v 4.703126 c 0,0.304687 -0.15625,0.453124 -0.46875,0.453124 h -3.265625 c -0.3125,0 -0.464844,-0.148437 -0.453125,-0.453124 l -0.01563,-4.703126 c 0,-0.3125 0.15625,-0.46875 0.46875,-0.46875 z m 7.265625,2.171876 0.796875,-1.90625 c 0.101563,-0.175782 0.226563,-0.265626 0.375,-0.265626 0.08203,0 0.171875,0.02344 0.265625,0.0625 0.1875,0.105469 0.28125,0.242188 0.28125,0.40625 0,0.07422 -0.02344,0.15625 -0.0625,0.25 l -1.046875,2.46875 1.046875,1.71875 c 0.03125,0.09375 0.04687,0.179688 0.04687,0.25 0,0.167969 -0.08984,0.304688 -0.265625,0.40625 -0.09375,0.04297 -0.183594,0.0625 -0.265625,0.0625 h -0.75 c -0.148437,0 -0.265625,-0.08594 -0.359375,-0.265624 l -1.140625,-1.859376 -0.828125,1.875 c -0.09375,0.179688 -0.21875,0.265626 -0.375,0.265626 -0.08594,0 -0.167969,-0.02344 -0.25,-0.07813 -0.199219,-0.09375 -0.296875,-0.222656 -0.296875,-0.390624 0,-0.08203 0.01953,-0.164063 0.0625,-0.25 l 1.09375,-2.390626 -1.09375,-1.78125 c -0.03125,-0.08203 -0.04687,-0.164062 -0.04687,-0.25 0,-0.164062 0.09375,-0.296874 0.28125,-0.390624 0.09375,-0.05078 0.179688,-0.07813 0.265625,-0.07813 l 0.734375,-0.01562 c 0.144531,0 0.269531,0.08984 0.375,0.265624 z m -22.59375,-5.324219"
     id="path191"
     style="display:inline" />
</svg>
