<?xml version="1.0" encoding="UTF-8"?>
<!DOCTYPE svg PUBLIC "-//W3C//DTD SVG 1.1//EN" "http://www.w3.org/Graphics/SVG/1.1/DTD/svg11.dtd">
<svg xmlns="http://www.w3.org/2000/svg" version="1.1" width="1302px" height="1302px" style="shape-rendering:geometricPrecision; text-rendering:geometricPrecision; image-rendering:optimizeQuality; fill-rule:evenodd; clip-rule:evenodd" xmlns:xlink="http://www.w3.org/1999/xlink">
<g><path style="opacity:0.998" fill="#f38327" d="M 340.5,-0.5 C 351.167,-0.5 361.833,-0.5 372.5,-0.5C 414.533,5.5972 447.366,26.2639 471,61.5C 668.747,409.996 866.747,758.329 1065,1106.5C 1086.17,1156.16 1081.5,1203.16 1051,1247.5C 1024.88,1280.64 990.714,1298.64 948.5,1301.5C 944.5,1301.5 940.5,1301.5 936.5,1301.5C 891.107,1297.89 855.274,1277.56 829,1240.5C 632.187,893.54 434.853,546.874 237,200.5C 215.039,156.809 215.039,113.143 237,69.5C 260.335,29.6663 294.835,6.33295 340.5,-0.5 Z"/></g>
<g><path style="opacity:0.997" fill="#f8c448" d="M 1042.5,-0.5 C 1052.83,-0.5 1063.17,-0.5 1073.5,-0.5C 1120.18,7.34086 1153.02,33.0075 1172,76.5C 1177.36,90.8458 1180.2,105.679 1180.5,121C 1155.72,391.301 1129.55,661.468 1102,931.5C 1095.63,950.444 1082.47,958.277 1062.5,955C 1058.64,953.819 1055.14,951.986 1052,949.5C 1019.65,888.802 987.319,828.135 955,767.5C 887.487,655.819 821.487,543.152 757,429.5C 754.389,419.769 755.389,410.435 760,401.5C 826.667,283.5 893.333,165.5 960,47.5C 981.27,20.782 1008.77,4.78203 1042.5,-0.5 Z"/></g>
<g><path style="opacity:0.996" fill="#ff5e5e" d="M 247.5,1301.5 C 243.833,1301.5 240.167,1301.5 236.5,1301.5C 182.649,1296.48 145.815,1268.81 126,1218.5C 121.779,1205.5 119.612,1192.17 119.5,1178.5C 144.582,903.432 170.415,628.432 197,353.5C 200.146,330.498 213.312,320.331 236.5,323C 241.629,324.028 245.795,326.528 249,330.5C 341.719,498.943 435.719,666.61 531,833.5C 533,840.5 533,847.5 531,854.5C 470,983.167 409,1111.83 348,1240.5C 324.673,1277.58 291.173,1297.91 247.5,1301.5 Z"/></g>
</svg>
