<?xml version="1.0" encoding="UTF-8" standalone="no"?>
<!-- Created with Inkscape (http://www.inkscape.org/) -->

<svg
   version="1.1"
   id="svg206"
   width="128"
   height="128"
   viewBox="0 0 128 128"
   sodipodi:docname="slackel-logo-1.svg"
   inkscape:version="1.2.2 (b0a8486541, 2022-12-01)"
   xmlns:inkscape="http://www.inkscape.org/namespaces/inkscape"
   xmlns:sodipodi="http://sodipodi.sourceforge.net/DTD/sodipodi-0.dtd"
   xmlns="http://www.w3.org/2000/svg"
   xmlns:svg="http://www.w3.org/2000/svg">
  <defs
     id="defs210">
    <filter
       inkscape:menu-tooltip="Oversaturate colors which can be fluorescent in real world"
       inkscape:menu="Color"
       inkscape:label="Fluorescence"
       style="color-interpolation-filters:sRGB;"
       id="filter186"
       x="-0.089649889"
       y="-0.097013302"
       width="1.2326628"
       height="1.2517726">
      <feGaussianBlur
         result="result0"
         in="SourceGraphic"
         stdDeviation="0.5"
         id="feGaussianBlur172" />
      <feColorMatrix
         values="1 0 0 -1 0 1 0 1 -1 0 1 0 0 -1 0 -0.8 -1 0 4.4 -2.9 "
         in="result0"
         result="fbSourceGraphicAlpha"
         id="feColorMatrix174" />
      <feGaussianBlur
         stdDeviation="0.7"
         in="fbSourceGraphicAlpha"
         result="result0"
         id="feGaussianBlur176" />
      <feSpecularLighting
         in="result0"
         result="result1"
         lighting-color="rgb(255,255,255)"
         surfaceScale="-2"
         specularConstant="1.5"
         specularExponent="10"
         id="feSpecularLighting180">
        <feDistantLight
           elevation="50"
           azimuth="235"
           id="feDistantLight178" />
      </feSpecularLighting>
      <feComposite
         result="result4"
         operator="in"
         in="SourceGraphic"
         in2="result1"
         id="feComposite182" />
      <feComposite
         operator="arithmetic"
         k2="1"
         k3="1"
         in2="result4"
         id="feComposite184"
         result="fbSourceGraphic" />
      <feColorMatrix
         result="fbSourceGraphicAlpha"
         in="fbSourceGraphic"
         values="0 0 0 -1 0 0 0 0 -1 0 0 0 0 -1 0 0 0 0 1 0"
         id="feColorMatrix496" />
      <feFlood
         id="feFlood498"
         flood-opacity="0.498039"
         flood-color="rgb(0,0,0)"
         result="flood"
         in="fbSourceGraphic" />
      <feComposite
         in2="fbSourceGraphic"
         id="feComposite500"
         in="flood"
         operator="in"
         result="composite1" />
      <feGaussianBlur
         id="feGaussianBlur502"
         in="composite1"
         stdDeviation="3"
         result="blur" />
      <feOffset
         id="feOffset504"
         dx="6"
         dy="6"
         result="offset" />
      <feComposite
         in2="offset"
         id="feComposite506"
         in="fbSourceGraphic"
         operator="over"
         result="fbSourceGraphic" />
      <feColorMatrix
         result="fbSourceGraphicAlpha"
         in="fbSourceGraphic"
         values="0 0 0 -1 0 0 0 0 -1 0 0 0 0 -1 0 0 0 0 1 0"
         id="feColorMatrix520" />
      <feColorMatrix
         id="feColorMatrix522"
         values="1 0 0 0 0 0 1 0 0 0 0 0 1 0 0 0 0 0 1 0"
         in="fbSourceGraphic"
         result="fbSourceGraphic" />
      <feColorMatrix
         result="fbSourceGraphicAlpha"
         in="fbSourceGraphic"
         values="0 0 0 -1 0 0 0 0 -1 0 0 0 0 -1 0 0 0 0 1 0"
         id="feColorMatrix624" />
      <feColorMatrix
         id="feColorMatrix626"
         values="1 0 0 0 -0 0 1 0 0 -0 0 0 1 0 -0 0 0 0 1 0"
         in="fbSourceGraphic"
         result="fbSourceGraphic" />
      <feColorMatrix
         result="fbSourceGraphicAlpha"
         in="fbSourceGraphic"
         values="0 0 0 -1 0 0 0 0 -1 0 0 0 0 -1 0 0 0 0 1 0"
         id="feColorMatrix628" />
      <feColorMatrix
         id="feColorMatrix630"
         type="hueRotate"
         values="0"
         in="fbSourceGraphic" />
      <feColorMatrix
         id="feColorMatrix632"
         type="saturate"
         values="1" />
      <feColorMatrix
         id="feColorMatrix634"
         type="matrix"
         values="2 -1 0 0 0 0 2 -1 0 0 -1 0 2 0 0 0 0 0 1 0 " />
    </filter>
  </defs>
  <sodipodi:namedview
     id="namedview208"
     pagecolor="#ffffff"
     bordercolor="#000000"
     borderopacity="0.25"
     inkscape:showpageshadow="2"
     inkscape:pageopacity="0.0"
     inkscape:pagecheckerboard="0"
     inkscape:deskcolor="#d1d1d1"
     showgrid="false"
     inkscape:zoom="4.0234375"
     inkscape:cx="63.875728"
     inkscape:cy="60.520388"
     inkscape:window-width="1364"
     inkscape:window-height="717"
     inkscape:window-x="1"
     inkscape:window-y="0"
     inkscape:window-maximized="1"
     inkscape:current-layer="g212" />
  <g
     inkscape:groupmode="layer"
     inkscape:label="Image"
     id="g212">
    <g
       id="g272"
       transform="translate(-3.1196273,-2.1755082)"
       style="filter:url(#filter186)">
      <path
         style="fill:#f1f4d1"
         d="M 32.717502,115.96553 C 27.045025,114.54418 23.730791,112.5513 19.795539,108.19545 15.017537,102.90677 13.554623,98.125065 13.616947,88 13.687025,76.615248 15.311278,69.529971 20.723494,57 26.759968,43.024794 33.68017,32.463948 41.744347,24.920306 55.050977,12.472607 63.405005,11.062261 98,15.423096 c 30.55494,3.851571 28,3.222387 28,6.895331 0,1.728448 -1.66529,7.350115 -3.70064,12.492594 l -3.70065,9.349962 -6.95352,-0.321235 -6.95352,-0.321235 -2.37182,8.934708 C 96.793407,73.271463 88.636483,88.514328 76.486754,100.72759 65.51933,111.75236 56.509659,116.24806 44.588449,116.6444 c -4.448647,0.1479 -9.790573,-0.15759 -11.870947,-0.67887 z M 55.585659,88.94706 C 63.563775,84.016313 74.181233,63.44514 76.484873,48.455133 77.126443,44.280375 75.770943,39.110472 73.687439,37.785665 71.384036,36.321034 64.72154,37.008979 61.414341,39.05294 49.043418,46.698591 36.020892,82.020892 43,89 c 2.626652,2.626652 8.288524,2.602835 12.585659,-0.05294 z"
         id="path286" />
      <path
         style="fill:#f0f6b0"
         d="M 33.333284,115.36112 C 16.834167,111.44857 10.12489,95.069282 15.89783,72.796125 21.438377,51.419586 34.132098,30.754732 48,20.535118 53.268478,16.652641 64.292526,13 70.741766,13 c 4.580463,0 51.697354,5.661309 54.008234,6.489335 0.6875,0.246343 1.25,1.274572 1.25,2.284955 0,2.111635 -6.66522,19.078853 -8.25748,21.020531 -0.7855,0.957877 -2.84183,1.119421 -7.90216,0.62079 C 103.08598,42.750052 103,42.771986 103,45.160547 103,48.510059 97.591496,65.495233 93.917356,73.684197 86.675038,89.82596 72.814141,106.00831 61.480947,111.55312 55.274821,114.5895 46.693878,117.00666 42.5,116.89987 c -1.65,-0.042 -5.775022,-0.73446 -9.166716,-1.53875 z M 54.935158,90.533531 c 13.022994,-6.734452 27.883346,-44.445395 20.659854,-52.428276 -2.291779,-2.53271 -9.20296,-2.876473 -13.469823,-0.669993 -9.922417,5.131082 -22.133745,29.989221 -21.926096,44.634126 0.0658,4.640765 0.559014,6.688719 1.944535,8.07424 2.276604,2.276604 8.760842,2.474253 12.79153,0.389903 z"
         id="path284" />
      <path
         style="fill:#ecf58e"
         d="M 33.717502,114.90842 C 28.11879,113.59008 24.763188,111.58716 20.795539,107.19545 16.14693,102.04999 14.582646,97.167509 14.645568,88 14.716961,77.598363 16.448101,70.225963 21.689979,58 27.8843,43.552591 33.604007,34.675841 41.84569,26.719168 50.972068,17.908392 57.698543,14.756276 68.5,14.228603 c 8.565324,-0.418434 55.13096,5.00236 56.733,6.604395 0.85378,0.853779 -5.42882,18.231135 -7.60147,21.025291 -0.8029,1.032583 -2.68379,1.197907 -7.84385,0.689448 C 103.91846,41.969399 103,42.098424 103,43.501275 103,46.483451 97.758637,63.38668 94.402661,71.227418 89.407928,82.896868 81.728161,94.122416 73.451336,101.85206 60.6341,113.82194 47.471509,118.14711 33.717502,114.90842 Z M 54.789518,90.859847 c 12.589381,-6.094415 28.031003,-42.168104 22.109296,-51.650264 -2.942889,-4.712314 -9.17952,-5.4072 -15.465793,-1.723199 -10.63103,6.230199 -23.212567,32.734875 -21.743501,45.805567 0.635014,5.649894 1.635033,7.483463 4.775762,8.756525 3.314612,1.343543 5.648536,1.074838 10.324236,-1.188629 z"
         id="path282" />
      <path
         style="fill:#e9f470"
         d="M 34.5,114.59427 C 24.293832,112.07203 19.431199,107.81809 16.424041,98.781036 12.931747,88.286058 14.946467,74.800067 22.652876,57.086897 30.828612,38.294979 41.578176,24.3111 51.882073,19.063256 57.376304,16.265007 65.84711,14 70.817932,14 c 6.862595,0 52.560998,5.978934 53.594018,7.011954 0.55276,0.552753 -0.63356,4.90059 -2.99869,10.990194 -4.33257,11.155237 -4.91114,11.63004 -12.43084,10.201265 C 103.18442,41.101767 102,41.554622 102,44.873091 c 0,1.488533 -1.35907,7.054295 -3.02015,12.368359 -9.816933,31.405919 -26.01471,50.73153 -47.911351,57.16317 -6.314927,1.85487 -9.674621,1.89332 -16.568499,0.18965 z M 56.556975,90.434032 C 64.823208,85.074107 74.399336,67.8803 77.631185,52.595578 80.100755,40.915978 77.291587,35 69.276026,35 c -2.40644,0 -5.61384,0.64045 -7.127555,1.423223 -10.447804,5.402769 -23.22583,30.809267 -23.015355,45.761338 0.07072,5.023904 0.507986,6.54745 2.431102,8.470566 3.298901,3.298901 9.709921,3.204359 14.992757,-0.221095 z"
         id="path280" />
      <path
         style="fill:#e4f14f"
         d="M 33.717502,113.96705 C 21.426179,110.88228 15.675513,102.76495 15.675552,88.5 c 3e-5,-10.820047 1.671255,-18.052283 7.047942,-30.5 8.685935,-20.109048 20.189761,-34.321042 32.257475,-39.851355 8.332891,-3.818743 17.155989,-3.868636 45.408671,-0.256777 13.1393,1.679745 24.0704,3.234842 24.29133,3.455771 0.22093,0.220929 -1.37439,4.84559 -3.54515,10.277025 L 117.18897,41.5 h -7.32091 c -6.53354,0 -7.35985,0.215101 -7.68301,2 -0.19916,1.1 -1.51033,6.044968 -2.913725,10.988818 -10.014613,35.279383 -31.706304,59.159032 -54.616674,60.125662 -3.935058,0.16602 -8.856775,-0.12532 -10.937149,-0.64743 z M 54.538708,92.121528 C 62.581032,88.468373 71.839469,74.195392 76.902772,57.644665 81.217474,43.54094 78.975736,35.477073 70.421256,34.329677 61.968682,33.195949 53.999817,40.066971 46.53952,54.921311 40.976979,65.996992 37.832343,76.8606 38.578791,82.422821 c 1.00888,7.51775 1.37929,8.306951 4.657211,9.922726 4.200329,2.070456 6.345063,2.027947 11.302706,-0.224019 z"
         id="path278" />
      <path
         style="fill:#e1f036"
         d="M 37.5,114.3081 C 29.735009,112.52254 27.317263,111.41187 23.464225,107.86026 13.264606,98.458579 13.176181,81.156115 23.209624,58.041396 29.05584,44.573072 36.043761,34.072598 44.163267,26.555181 52.070849,19.233972 58.930534,16.06375 68.5,15.307894 c 5.505497,-0.434858 54.20636,5.065137 55.3975,6.256275 0.26204,0.262036 -1.29851,4.854795 -3.46788,10.20613 -4.36458,10.766382 -3.57606,10.243597 -13.79357,9.145114 C 102.06513,40.423994 101.91809,40.63177 99.499044,51 95.568932,67.84479 86.3114,86.215918 76.274294,97.088401 64.637848,109.69334 48.533568,116.84526 37.5,114.3081 Z M 58.172261,90.726872 C 63.743449,86.513306 69.716999,77.587073 74.312945,66.607962 83.110007,45.592938 80.963268,33.562846 68.449884,33.752017 60.542114,33.871563 53.278112,40.233175 46.652691,52.841395 41.408379,62.821355 38,73.865745 38,80.879264 c 0,10.116651 2.404598,12.926051 11.172261,13.053056 3.790409,0.05491 5.489086,-0.550096 9,-3.205448 z"
         id="path276" />
      <path
         style="fill:#deef26"
         d="M 37.5,113.3081 C 29.860818,111.55147 27.44002,110.48889 24.002928,107.38368 14.295844,98.613913 14.370854,80.707635 24.209624,58.041396 35.714224,31.537472 50.355034,17.741764 68.5,16.307564 c 5.307448,-0.419507 53.04674,4.905847 54.18531,6.044411 0.22331,0.223314 -1.23675,4.510475 -3.24459,9.527025 -3.99975,9.993294 -3.77093,9.840011 -12.24385,8.202008 C 102.18954,39.11298 100,40.535776 100,44.757642 100,48.706931 96.268763,61.194846 92.360533,70.325845 85.561496,86.210783 73.022483,101.8011 61.718751,108.42416 54.586806,112.60289 43.849516,114.76817 37.5,113.3081 Z M 55.858052,93.072417 C 63.102785,89.37643 70.011605,79.641553 75.847757,64.905914 83.780893,44.875621 81.353187,33 69.325303,33 60.151348,33 52.82701,39.409789 45.635862,53.731474 37.879343,69.179136 35.352081,80.97433 38.106065,88.874412 c 2.065076,5.923883 10.472024,7.911964 17.751987,4.198005 z"
         id="path274" />
    </g>
  </g>
</svg>
