<svg xmlns="http://www.w3.org/2000/svg" xmlns:svg="http://www.w3.org/2000/svg" version="1.1" id="svg1" viewBox="80.32 75.14 125.11 135.47">
  <defs id="defs1"/>
  <g id="layer1" transform="translate(51.862587)">
    <g id="g47" transform="matrix(1.2904649,0,0,1.2904649,182.29828,263.50697)">
      <path d="m -74.175793,-145.04607 -37.629647,21.72532 a 2.2913627,2.2913627 90.000242 0 0 -2e-5,3.96875 l 37.629683,21.725759 a 6.8739581,6.8739581 179.99986 0 0 6.874048,-1.7e-5 l 37.629186,-21.725722 a 2.2913894,2.2913894 89.999758 0 0 -1.6e-5,-3.96879 l -37.629154,-21.72528 a 6.8740921,6.8740921 1.4438715e-4 0 0 -6.87408,-2e-5 z" style="fill:#6993e9;fill-opacity:1;stroke:none;stroke-width:1.05833" id="path39"/>
      <path d="m -119.21176,-112.42944 v 43.451098 a 6.8741068,6.8741068 60.000109 0 0 3.43703,5.953138 l 37.630715,21.726294 a 2.2913488,2.2913488 150.00011 0 0 3.437031,-1.984362 v -43.452127 a 6.8739692,6.8739692 59.999612 0 0 -3.437065,-5.953078 l -37.630641,-21.725383 a 2.2913947,2.2913947 149.99961 0 0 -3.43707,1.98442 z" style="fill:#8f96ee;fill-opacity:1;stroke-width:1.05833" id="path37"/>
      <path d="m -25.702789,-114.41386 -37.630661,21.725383 a 6.873968,6.873968 120.00039 0 0 -3.437065,5.953078 v 43.452127 a 2.2913492,2.2913492 29.999895 0 0 3.437031,1.984362 l 37.630729,-21.726294 a 6.8741057,6.8741057 119.9999 0 0 3.437031,-5.953138 v -43.451098 a 2.2913951,2.2913951 30.000392 0 0 -3.437065,-1.98442 z" style="fill:#73b4d1;fill-opacity:1;stroke-width:1.05833" id="path38"/>
    </g>
  </g>
</svg>